<?xml version="1.0" encoding="UTF-8"?>
<svg id="a" data-name="Layer 1" xmlns="http://www.w3.org/2000/svg" viewBox="0 0 100 100">
  <path d="M36.61,16.55c-.44,2.57-1.56,4.87-3.54,6.71h0c2.14.87,3.88,2.08,5.25,3.58.86-1.54,2.19-2.8,4.03-3.74-2.58-1.76-4.45-4-5.74-6.55Z"/>
  <path d="M46.81,23.82c2.37,1.62,4.09,3.54,5.22,5.71,1.73-1.61,3.93-2.75,6.66-3.38-2.56-2.8-4.02-6-4.63-9.39-1.62,2.96-3.98,5.41-7.25,7.06Z"/>
  <path d="M24.71,23.03h0c1.39.25,2.61.76,3.68,1.49.19-1.04.7-1.98,1.57-2.78-1.8-.73-3.3-1.85-4.54-3.22.24,1.61.06,3.15-.71,4.51Z"/>
  <path d="M75.17,30.6c.56,1.09.76,2.16.62,3.21,1.23-.28,2.53-.29,3.92,0h0c-.3-1.58,0-3.09.72-4.51-1.58.82-3.33,1.3-5.25,1.3Z"/>
  <polygon points="71.78 30.84 71.78 30.84 71.78 30.84 71.78 30.84" fill="#0037ff"/>
  <path d="M70.52,23.2c-2,1.9-4.45,3.3-7.41,3.97,1.44,1.58,2.3,3.27,2.64,5.04,1.75-.89,3.75-1.36,6.03-1.36-1.29-2.47-1.63-5.06-1.26-7.65Z"/>
  <path d="M86.54,19.07c-3.07-.6-5.29,1.9-3.68,4.18.09.13.19.26.3.37h0c-8.28,3.95-8.18,3.16-8.91-6.24.98.22,2.02.13,2.87-.37,2.5-1.46,1.49-4.89-1.89-5.55-3.07-.6-5.29,1.9-3.68,4.18.21.29.46.56.74.79-9.66,7.5-10.71,5.25-15.2-7.17.64-.08,1.26-.27,1.82-.6,3.29-1.92,1.84-6.4-2.41-7.24-4.24-.83-6.99,2.83-4.49,5.88.43.52.95.94,1.52,1.25-8.04,9.96-9.73,11.67-16.49.96.33-.11.65-.27.93-.46,2.21-1.53.89-4.73-2.17-5.33-3.38-.66-5.39,2.18-3.49,4.5.65.8,1.6,1.28,2.59,1.44-3.59,8.55-3.73,9.33-10.29,2.47.14-.07.27-.15.4-.24,2.21-1.53.89-4.73-2.17-5.33-3.38-.66-5.39,2.18-3.49,4.5.68.83,1.67,1.32,2.7,1.46l2.2,13.85,55,10.78,6.22-12.2c1.01.25,2.09.17,2.98-.35,2.5-1.46,1.49-4.89-1.89-5.55ZM28.39,24.52c-1.07-.73-2.29-1.24-3.68-1.49h0c.77-1.36.96-2.9.71-4.51,1.23,1.37,2.73,2.49,4.54,3.22-.86.81-1.38,1.74-1.57,2.78ZM38.31,26.83c-1.37-1.5-3.11-2.71-5.25-3.58h0c1.98-1.84,3.1-4.13,3.54-6.71,1.29,2.54,3.17,4.79,5.74,6.55-1.84.94-3.17,2.2-4.03,3.74ZM52.03,29.52c-1.13-2.17-2.85-4.08-5.22-5.71,3.27-1.66,5.63-4.1,7.25-7.06.61,3.4,2.07,6.59,4.63,9.39-2.73.62-4.93,1.77-6.66,3.38ZM71.78,30.84h0c-2.28,0-4.29.47-6.03,1.36-.34-1.78-1.2-3.46-2.64-5.04,2.96-.67,5.41-2.07,7.41-3.97-.38,2.59-.03,5.17,1.26,7.65h0,0ZM79.7,33.81h0c-1.38-.29-2.69-.28-3.92,0,.14-1.05-.05-2.12-.62-3.21,1.92,0,3.68-.48,5.25-1.3-.73,1.42-1.03,2.94-.72,4.51Z" fill="#ffb600"/>
</svg>