<?xml version="1.0" encoding="UTF-8"?>
<svg id="Ebene_1" data-name="Ebene 1" xmlns="http://www.w3.org/2000/svg" xmlns:xlink="http://www.w3.org/1999/xlink" viewBox="0 0 548.52 400.56">
  <defs>
    <style>
      .cls-1 {
        fill: #3c3c3b;
      }

      .cls-2 {
        fill: #c6c6c6;
      }

      .cls-3 {
        clip-path: url(#clippath-1);
      }

      .cls-4 {
        fill: #706f6f;
      }

      .cls-5 {
        clip-path: url(#clippath);
      }

      .cls-6 {
        fill: #b2b2b2;
      }
    </style>
    <clipPath id="clippath">
      <path class="cls-1" d="M229.54,168.91c-.17-5.73-.24-12.65-.24-20.47,0-20.43.5-47.04,1.01-74.76.24-12.85.48-25.73.66-37.93l34.7.53c-.19,12.25-.43,25.16-.67,38.05-.67,36.24-1.37,73.72-.78,93.54"/>
    </clipPath>
    <clipPath id="clippath-1">
      <path class="cls-1" d="M84.04,184.98c-.17-5.73-.24-12.65-.24-20.47,0-20.43.5-47.04,1.01-74.76.24-12.85.48-25.73.66-37.93l34.7.53c-.19,12.25-.43,25.16-.67,38.05-.67,36.24-1.37,73.72-.78,93.54"/>
    </clipPath>
  </defs>
  <g>
    <path class="cls-1" d="M229.54,168.91c-.17-5.73-.24-12.65-.24-20.47,0-20.43.5-47.04,1.01-74.76.24-12.85.48-25.73.66-37.93l34.7.53c-.19,12.25-.43,25.16-.67,38.05-.67,36.24-1.37,73.72-.78,93.54"/>
    <g class="cls-5">
      <rect class="cls-4" x="232.53" y="53.88" width="33.23" height="62.77" transform="translate(334.42 -163.88) rotate(90)"/>
      <rect class="cls-4" x="232.53" y="102.37" width="33.23" height="62.77" transform="translate(382.9 -115.39) rotate(90)"/>
      <polygon class="cls-4" points="252.47 253.05 222.71 208.94 276.45 181.54 290.22 199.75 252.47 253.05"/>
      <polygon class="cls-4" points="487.87 279.7 474.55 265.05 502.09 206.86 540.73 243.28 487.87 279.7"/>
      <rect class="cls-4" x="500.51" y="277.26" width="33.23" height="62.77" transform="translate(825.78 -208.48) rotate(90)"/>
      <rect class="cls-4" x="500.51" y="336.5" width="33.23" height="62.77" transform="translate(885.01 -149.25) rotate(90)"/>
    </g>
  </g>
  <g>
    <path class="cls-1" d="M84.04,184.98c-.17-5.73-.24-12.65-.24-20.47,0-20.43.5-47.04,1.01-74.76.24-12.85.48-25.73.66-37.93l34.7.53c-.19,12.25-.43,25.16-.67,38.05-.67,36.24-1.37,73.72-.78,93.54"/>
    <g class="cls-3">
      <rect class="cls-4" x="87.03" y="62.45" width="33.23" height="62.77" transform="translate(197.49 -9.82) rotate(90)"/>
      <rect class="cls-4" x="88.68" y="107.93" width="29.95" height="62.77" transform="translate(242.96 35.66) rotate(90)"/>
      <polygon class="cls-4" points="106.97 269.12 77.21 225.01 130.95 197.61 144.72 215.82 106.97 269.12"/>
      <polygon class="cls-4" points="342.38 295.77 329.05 281.11 356.59 222.92 395.23 259.35 342.38 295.77"/>
      <rect class="cls-4" x="355.02" y="293.33" width="33.23" height="62.77" transform="translate(696.35 -46.92) rotate(90)"/>
      <rect class="cls-4" x="355.02" y="352.56" width="33.23" height="62.77" transform="translate(755.58 12.31) rotate(90)"/>
    </g>
  </g>
  <path class="cls-2" d="M185.5,229.33c0-54.54,28.29-66.31,64.26-66.31s65.99,12.43,64.26,66.97"/>
  <path class="cls-2" d="M40.56,229.33c0-54.54,28.29-66.31,64.26-66.31s65.99,12.43,64.26,66.97"/>
  <path class="cls-2" d="M354.21,1.33v55.72c0,5.86-4.75,10.62-10.62,10.62H10.62c-5.86,0-10.62-4.75-10.62-10.62V0"/>
  <path class="cls-6" d="M.03,33.92h353.99v22.93c0,7.14-5.8,12.94-12.94,12.94H12.97C5.83,69.78.03,63.98.03,56.84v-22.93H.03Z"/>
</svg>