<?xml version="1.0" encoding="UTF-8"?>
<svg id="Ebene_1" data-name="Ebene 1" xmlns="http://www.w3.org/2000/svg" viewBox="0 0 354.21 345.42">
  <defs>
    <style>
      .cls-1 {
        fill: #1d1d1b;
      }

      .cls-2 {
        fill: #c6c6c6;
      }

      .cls-3 {
        fill: #fff;
      }

      .cls-4 {
        fill: #f9b952;
      }

      .cls-5 {
        fill: #fcea10;
      }

      .cls-6 {
        fill: none;
        stroke: #f9b952;
        stroke-miterlimit: 10;
        stroke-width: 1.85px;
      }

      .cls-7 {
        fill: #9d9d9c;
      }

      .cls-8 {
        fill: #e6332a;
      }

      .cls-9 {
        fill: #e5a845;
      }
    </style>
  </defs>
  <path class="cls-7" d="M203.11,235.89v107.97h-57.71v-107.97c0-1.28,1.02-2.3,2.3-2.3h53.11c1.28,0,2.3,1.02,2.3,2.3Z"/>
  <path class="cls-2" d="M0,344.59v-66.62c0-5.86,4.75-10.62,10.62-10.62h332.98c5.86,0,10.62,4.75,10.62,10.62v67.45"/>
  <rect class="cls-2" x="175.75" y="20.02" width="12.02" height="75.7"/>
  <rect class="cls-2" x="46.11" y="87.5" width="261.99" height="167.73" rx="4.89" ry="4.89"/>
  <path class="cls-4" d="M175.98,73.91c-.97,20.45-141.12,39.64-150.4,31.42-2.8-2.48-1.11-7.34-1.05-10.99.44-29.48,26.71-57.27,63.67-64.99,41.53-8.68,89.41,10.59,87.79,44.56Z"/>
  <rect class="cls-3" x="59.97" y="101.36" width="96.69" height="93.57" rx="4.85" ry="4.85"/>
  <rect class="cls-1" x="87.67" y="125.83" width="58.6" height="56.71" rx="4.85" ry="4.85"/>
  <rect class="cls-8" x="69.66" y="283.98" width="25.18" height="24.37" rx="2.08" ry="2.08"/>
  <rect class="cls-8" x="119.69" y="283.19" width="25.18" height="24.37" rx="2.08" ry="2.08"/>
  <rect class="cls-8" x="169.72" y="283.19" width="25.18" height="24.37" rx="2.08" ry="2.08"/>
  <rect class="cls-8" x="219.75" y="283.19" width="25.18" height="24.37" rx="2.08" ry="2.08"/>
  <rect class="cls-3" x="197.21" y="101.36" width="96.69" height="93.57" rx="4.85" ry="4.85"/>
  <rect class="cls-1" x="224.9" y="125.83" width="58.6" height="56.71" rx="4.85" ry="4.85"/>
  <rect class="cls-3" x="107.63" y="221.39" width="143.88" height="15.16"/>
  <polygon class="cls-5" points="178.41 190.84 165.93 209.56 190.89 209.56 178.41 190.84"/>
  <circle class="cls-8" cx="181.98" cy="16.32" r="16.32"/>
  <circle class="cls-1" cx="279.19" cy="295.98" r="13.66"/>
  <path class="cls-9" d="M28.74,126.03l-6.55-14.19c-2-4.34.45-9.43,5.09-10.57l148.16-36.42c3.51-.86,7.14.86,8.69,4.12l4.53,9.53c2.02,4.26-.27,9.31-4.81,10.59-40.67,10.36-106.27,18.73-122.69,28.33-11.11,4.8-17.4,8.8-23.44,12.75-3.6,1.01-7.4-.74-8.96-4.14Z"/>
  <line class="cls-6" x1="174.67" y1="72.05" x2="179.08" y2="84.08"/>
  <line class="cls-6" x1="149.61" y1="78.66" x2="151.98" y2="90.68"/>
  <line class="cls-6" x1="140.22" y1="80.56" x2="140.98" y2="92.54"/>
  <line class="cls-6" x1="129.39" y1="82.59" x2="130.14" y2="94.91"/>
  <line class="cls-6" x1="118.72" y1="84.63" x2="120.9" y2="97.24"/>
  <line class="cls-6" x1="109.65" y1="86.28" x2="111.68" y2="98.81"/>
  <line class="cls-6" x1="99.32" y1="89.83" x2="101.69" y2="100.5"/>
  <line class="cls-6" x1="88.65" y1="92.54" x2="90.86" y2="102.53"/>
  <line class="cls-6" x1="77.82" y1="94.4" x2="81.54" y2="105.75"/>
  <line class="cls-6" x1="67.66" y1="97.62" x2="70.54" y2="108.29"/>
  <line class="cls-6" x1="56.14" y1="99.65" x2="59.7" y2="111.85"/>
  <line class="cls-6" x1="43.44" y1="104.06" x2="48.52" y2="117.77"/>
  <line class="cls-6" x1="29.73" y1="108.8" x2="38.02" y2="122.34"/>
  <line class="cls-6" x1="160.62" y1="75.47" x2="162.65" y2="88.11"/>
</svg>